<svg xmlns="http://www.w3.org/2000/svg" width="16.3" height="16.153" viewBox="0 0 16.3 16.153">
  <g id="Group_2798" data-name="Group 2798" transform="translate(-84 -354.424)">
    <g id="headphones" transform="translate(84 352.324)">
      <path id="Path_2627" data-name="Path 2627" d="M16.3,10.25A8.151,8.151,0,0,0,2.386,4.486,8.1,8.1,0,0,0,0,10.25v3.859a3.962,3.962,0,0,0,3.956,3.956.469.469,0,0,0,.471-.471V10.627a.469.469,0,0,0-.471-.471,3.943,3.943,0,0,0-3.014,1.4v-1.3a7.208,7.208,0,1,1,14.416,0,.433.433,0,0,0,.01.094.433.433,0,0,0-.01.094v1.3a3.943,3.943,0,0,0-3.014-1.4.469.469,0,0,0-.471.471v6.967a.469.469,0,0,0,.471.471A3.962,3.962,0,0,0,16.3,14.3V10.438a.433.433,0,0,0-.01-.094A.433.433,0,0,0,16.3,10.25Zm-12.818.883v5.952a3.013,3.013,0,0,1,0-5.952Zm9.336,6.14V11.321a3.013,3.013,0,0,1,0,5.952Z" fill="#444"/>
    </g>
    <g id="Group_2061" data-name="Group 2061" transform="translate(90.043 357.82)">
      <path id="Path_2668" data-name="Path 2668" d="M54.661,48.094a.523.523,0,0,0,.523-.523c0-.779-1.091-.452-1.569-.523-.028-.123.152-1.047-.523-1.047-.691,0-.493.915-.523,1.047h-.319A1.212,1.212,0,0,0,51,48.217v.8a1.213,1.213,0,0,0,1.249,1.169h1.685c.341,0,.151.313.2.923,0,.209-.607.093-1.038.123l-.008,0-.008,0c-.875.1-2.084-.3-2.084.523,0,.779,1.091.452,1.569.523V52.8a.523.523,0,0,0,1.046,0v-.521h.32a1.213,1.213,0,0,0,1.249-1.169v-.8c0-1.891-3.138-.832-3.138-1.292v-.8C52.046,47.981,52.767,48.147,54.661,48.094Z" transform="translate(-51 -46.001)" fill="#444"/>
    </g>
  </g>
</svg>
